# xmcd CD database file
#
# Track frame offsets:
#	150
#	22424
#	40352
#	58185
#	73286
#	91642
#	102744
#	116243
#	134438
#	154862
#	169066
#	181989
#	200411
#
# Disc length: 2790 seconds
#
# Revision: 0
# Processed by: cddbd v1.5.2PL0 Copyright (c) Steve Scherf et al.
# Submitted via: CDex 1.51
#
DISCID=c60ae40d
DTITLE=mou, lips! - Untree
DYEAR=2008
DGENRE=New Age
TTITLE0=Non è Colpa Mia!
TTITLE1=For INstruments
TTITLE2=Michaela Aiuta Cenzina
TTITLE3=Still Life(s) Live
TTITLE4=Untree
TTITLE5=Vit Virt
TTITLE6=Cosa Buena
TTITLE7=Air Ain't Misused
TTITLE8=Pesci Nelle Acque Universali
TTITLE9=Bora
TTITLE10=Pianobguitar
TTITLE11=Vitiello Tre Mix
TTITLE12=Piano e Bottiglie
EXTD=YEAR: 2008
EXTT0=
EXTT1=
EXTT2=
EXTT3=
EXTT4=
EXTT5=
EXTT6=
EXTT7=
EXTT8=
EXTT9=
EXTT10=
EXTT11=
EXTT12=
PLAYORDER=
